{
  "source": "C:\\Users\\Peter\\Desktop\\stuff\\MIUN\\quantitative_research\\video_compression\\videos\\HEVC_CLASS_B\\Kimono_1920x1080_24.y4m",
  "output": "C:\\Users\\Peter\\Desktop\\stuff\\MIUN\\quantitative_research\\video_compression\\compressed_videos\\HEVC_CLASS_B\\av1\\4\\Kimono_1920x1080_24_av1.mkv",
  "codec": "av1",
  "ok": "Input #0, yuv4mpegpipe, from 'C:\\Users\\Peter\\Desktop\\stuff\\MIUN\\quantitative_research\\video_compression\\videos\\HEVC_CLASS_B\\Kimono_1920x1080_24.y4m':\n  Duration: 00:00:10.00, start: 0.000000, bitrate: 597198 kb/s\n  Stream #0:0: Video: rawvideo (I420 / 0x30323449), yuv420p(progressive), 1920x1080, 24 fps, 24 tbr, 24 tbn\n[out#0/matroska @ 00000230046f9080] Codec AVOption b:a (set bitrate (in bits/s)) has not been used for any stream. The most likely reason is either wrong type (e.g. a video option with no video streams) or that it is a private option of some decoder which was not actually used for any stream.\nStream mapping:\n  Stream #0:0 -> #0:0 (rawvideo (native) -> av1 (libsvtav1))\nPress [q] to stop, [?] for help\nSvt[info]: -------------------------------------------\nSvt[info]: SVT [version]:\tSVT-AV1 Encoder Lib v3.1.0-19-g6ecfe8ec\nSvt[info]: SVT [build]  :\tGCC 15.2.0\t 64 bit\nSvt[info]: LIB Build date: Aug 17 2025 11:37:13\nSvt[info]: -------------------------------------------\n[libsvtav1 @ 00000230046fc0c0] Specified chroma sample location center is unsupported on the AV1 bit stream level. Usage of a container that allows passing this information - such as Matroska - is recommended.\nSvt[info]: Level of Parallelism: 5\nSvt[info]: Number of PPCS 93\nSvt[info]: [asm level on system : up to avx2]\nSvt[info]: [asm level selected : up to avx2]\nSvt[info]: -------------------------------------------\nSvt[info]: SVT [config]: main profile\ttier (auto)\tlevel (auto)\nSvt[info]: SVT [config]: width / height / fps numerator / fps denominator \t\t: 1920 / 1080 / 24 / 1\nSvt[info]: SVT [config]: bit-depth / color format \t\t\t\t\t: 8 / YUV420\nSvt[info]: SVT [config]: preset / tune / pred struct \t\t\t\t\t: 4 / PSNR / random access\nSvt[info]: SVT [config]: gop size / mini-gop size / key-frame type \t\t\t: 161 / 16 / key frame\nSvt[info]: SVT [config]: BRC mode / target bitrate (kbps)\t\t\t\t: VBR / 4000 \nSvt[info]: SVT [config]: AQ mode / Variance Boost \t\t\t\t\t: 2 / 0\nSvt[info]: SVT [config]: sharpness / luminance-based QP bias \t\t\t\t: 0 / 0\nSvt[info]: SVT [config]: QP scale compress strength \t\t\t\t\t: 0\nSvt[info]: -------------------------------------------\nOutput #0, matroska, to 'C:\\Users\\Peter\\Desktop\\stuff\\MIUN\\quantitative_research\\video_compression\\compressed_videos\\HEVC_CLASS_B\\av1\\4\\Kimono_1920x1080_24_av1.mkv':\n  Metadata:\n    encoder         : Lavf62.3.100\n  Stream #0:0: Video: av1 (AV01 / 0x31305641), yuv420p(tv, progressive), 1920x1080, q=2-31, 4000 kb/s, 24 fps, 1k tbn\n    Metadata:\n      encoder         : Lavc62.11.100 libsvtav1\n    Side data:\n      cpb: bitrate max/min/avg: 0/0/4000000 buffer size: 4000000 vbv_delay: N/A\nframe=    0 fps=0.0 q=0.0 size=       0KiB time=N/A bitrate=N/A speed=N/A elapsed=0:00:01.94    \nframe=    0 fps=0.0 q=0.0 size=       0KiB time=N/A bitrate=N/A speed=N/A elapsed=0:00:02.68    \nframe=    0 fps=0.0 q=0.0 size=       0KiB time=N/A bitrate=N/A speed=N/A elapsed=0:00:03.45    \nframe=    0 fps=0.0 q=0.0 size=       0KiB time=N/A bitrate=N/A speed=N/A elapsed=0:00:04.26    \nframe=    0 fps=0.0 q=0.0 size=       0KiB time=N/A bitrate=N/A speed=N/A elapsed=0:00:05.15    \nframe=    0 fps=0.0 q=0.0 size=       0KiB time=N/A bitrate=N/A speed=N/A elapsed=0:00:05.97    \nframe=    0 fps=0.0 q=0.0 size=       0KiB time=N/A bitrate=N/A speed=N/A elapsed=0:00:06.52    \nframe=    0 fps=0.0 q=0.0 size=       0KiB time=N/A bitrate=N/A speed=N/A elapsed=0:00:07.05    \nframe=    0 fps=0.0 q=0.0 size=       0KiB time=N/A bitrate=N/A speed=N/A elapsed=0:00:07.56    \nframe=    0 fps=0.0 q=0.0 size=       0KiB time=N/A bitrate=N/A speed=N/A elapsed=0:00:08.08    \nframe=    0 fps=0.0 q=0.0 size=       0KiB time=N/A bitrate=N/A speed=N/A elapsed=0:00:08.62    \nframe=    0 fps=0.0 q=0.0 size=       0KiB time=N/A bitrate=N/A speed=N/A elapsed=0:00:09.14    \nframe=    0 fps=0.0 q=0.0 size=       0KiB time=N/A bitrate=N/A speed=N/A elapsed=0:00:09.68    \nframe=    0 fps=0.0 q=0.0 size=       0KiB time=N/A bitrate=N/A speed=N/A elapsed=0:00:10.19    \nframe=    0 fps=0.0 q=0.0 size=       0KiB time=N/A bitrate=N/A speed=N/A elapsed=0:00:10.71    \nframe=    0 fps=0.0 q=0.0 size=       0KiB time=N/A bitrate=N/A speed=N/A elapsed=0:00:11.23    \nframe=    1 fps=0.1 q=14.0 size=       1KiB time=00:00:00.00 bitrate=N/A speed=   0x elapsed=0:00:11.73    \nframe=    1 fps=0.1 q=14.0 size=       1KiB time=00:00:00.00 bitrate=N/A speed=   0x elapsed=0:00:12.28    \nframe=    1 fps=0.1 q=14.0 size=       1KiB time=00:00:00.00 bitrate=N/A speed=   0x elapsed=0:00:12.88    \nframe=    1 fps=0.1 q=14.0 size=       1KiB time=00:00:00.00 bitrate=N/A speed=   0x elapsed=0:00:13.40    \nframe=    1 fps=0.1 q=14.0 size=       1KiB time=00:00:00.00 bitrate=N/A speed=   0x elapsed=0:00:13.96    \nframe=    1 fps=0.1 q=14.0 size=       1KiB time=00:00:00.00 bitrate=N/A speed=   0x elapsed=0:00:14.54    \nframe=    1 fps=0.1 q=14.0 size=       1KiB time=00:00:00.00 bitrate=N/A speed=   0x elapsed=0:00:15.07    \nframe=    1 fps=0.1 q=14.0 size=       1KiB time=00:00:00.00 bitrate=N/A speed=   0x elapsed=0:00:15.62    \nframe=    1 fps=0.1 q=14.0 size=       1KiB time=00:00:00.00 bitrate=N/A speed=   0x elapsed=0:00:16.29    \nframe=    1 fps=0.1 q=14.0 size=       1KiB time=00:00:00.00 bitrate=N/A speed=   0x elapsed=0:00:16.88    \nframe=    2 fps=0.1 q=32.0 size=       1KiB time=00:00:00.04 bitrate= 107.9kbits/s speed=0.0024x elapsed=0:00:17.39    \nframe=    3 fps=0.2 q=29.0 size=       1KiB time=00:00:00.08 bitrate=  54.0kbits/s speed=0.00465x elapsed=0:00:17.93    \nframe=    4 fps=0.2 q=32.0 size=       1KiB time=00:00:00.08 bitrate=  54.0kbits/s speed=0.0045x elapsed=0:00:18.50    \nframe=    5 fps=0.3 q=28.0 size=       1KiB time=00:00:00.12 bitrate=  36.0kbits/s speed=0.00655x elapsed=0:00:19.09    \nframe=    6 fps=0.3 q=31.0 size=       1KiB time=00:00:00.20 bitrate=  21.6kbits/s speed=0.0106x elapsed=0:00:19.66    \nframe=    6 fps=0.3 q=31.0 size=       1KiB time=00:00:00.20 bitrate=  21.6kbits/s speed=0.0103x elapsed=0:00:20.21    \nframe=    7 fps=0.3 q=28.0 size=       1KiB time=00:00:00.20 bitrate=  21.6kbits/s speed=0.0101x elapsed=0:00:20.72    \nframe=    7 fps=0.3 q=28.0 size=       1KiB time=00:00:00.25 bitrate=  18.0kbits/s speed=0.0117x elapsed=0:00:21.27    \nframe=    9 fps=0.4 q=25.0 size=       1KiB time=00:00:00.33 bitrate=  13.5kbits/s speed=0.0153x elapsed=0:00:21.81    \nframe=   10 fps=0.4 q=26.0 size=       1KiB time=00:00:00.37 bitrate=  12.0kbits/s speed=0.0168x elapsed=0:00:22.35    \nframe=   11 fps=0.5 q=27.0 size=       1KiB time=00:00:00.41 bitrate=  10.8kbits/s speed=0.0182x elapsed=0:00:22.93    \nframe=   12 fps=0.5 q=25.0 size=       1KiB time=00:00:00.45 bitrate=   9.8kbits/s speed=0.0195x elapsed=0:00:23.49    \nframe=   14 fps=0.6 q=25.0 size=       1KiB time=00:00:00.54 bitrate=   8.3kbits/s speed=0.0225x elapsed=0:00:24.07    \nframe=   15 fps=0.6 q=27.0 size=       1KiB time=00:00:00.58 bitrate=   7.7kbits/s speed=0.0236x elapsed=0:00:24.67    \nframe=   16 fps=0.6 q=25.0 size=       1KiB time=00:00:00.62 bitrate=   7.2kbits/s speed=0.0248x elapsed=0:00:25.24    \nframe=   16 fps=0.6 q=25.0 size=       1KiB time=00:00:00.62 bitrate=   7.2kbits/s speed=0.0242x elapsed=0:00:25.80    \nframe=   17 fps=0.6 q=18.0 size=       1KiB time=00:00:00.66 bitrate=   6.7kbits/s speed=0.0253x elapsed=0:00:26.37    \nframe=   18 fps=0.7 q=27.0 size=       1KiB time=00:00:00.70 bitrate=   6.3kbits/s speed=0.0263x elapsed=0:00:26.94    \nframe=   18 fps=0.7 q=27.0 size=       1KiB time=00:00:00.70 bitrate=   6.3kbits/s speed=0.0258x elapsed=0:00:27.47    \nframe=   19 fps=0.7 q=27.0 size=       1KiB time=00:00:00.75 bitrate=   6.0kbits/s speed=0.0267x elapsed=0:00:28.04    \nframe=   20 fps=0.7 q=27.0 size=       1KiB time=00:00:00.79 bitrate=   5.7kbits/s speed=0.0277x elapsed=0:00:28.60    \nframe=   21 fps=0.7 q=26.0 size=       1KiB time=00:00:00.83 bitrate=   5.4kbits/s speed=0.0286x elapsed=0:00:29.12    \nframe=   22 fps=0.7 q=26.0 size=       1KiB time=00:00:00.87 bitrate=   5.1kbits/s speed=0.0295x elapsed=0:00:29.68    \nframe=   23 fps=0.8 q=27.0 size=       1KiB time=00:00:00.91 bitrate=   4.9kbits/s speed=0.0303x elapsed=0:00:30.20    \nframe=   25 fps=0.8 q=23.0 size=       1KiB time=00:00:01.00 bitrate=   4.5kbits/s speed=0.0325x elapsed=0:00:30.74    \nframe=   26 fps=0.8 q=25.0 size=       1KiB time=00:00:01.04 bitrate=   4.3kbits/s speed=0.0333x elapsed=0:00:31.27    \nframe=   27 fps=0.8 q=27.0 size=       1KiB time=00:00:01.08 bitrate=   4.2kbits/s speed=0.0341x elapsed=0:00:31.80    \nframe=   30 fps=0.9 q=26.0 size=       1KiB time=00:00:01.20 bitrate=   3.7kbits/s speed=0.0374x elapsed=0:00:32.33    \nframe=   31 fps=0.9 q=26.0 size=       1KiB time=00:00:01.25 bitrate=   3.6kbits/s speed=0.038x elapsed=0:00:32.86    \nframe=   32 fps=1.0 q=26.0 size=       1KiB time=00:00:01.29 bitrate=   3.5kbits/s speed=0.0387x elapsed=0:00:33.39    \nframe=   34 fps=1.0 q=27.0 size=       1KiB time=00:00:01.33 bitrate=   3.4kbits/s speed=0.0393x elapsed=0:00:33.92    \nframe=   34 fps=1.0 q=27.0 size=       1KiB time=00:00:01.37 bitrate=   3.3kbits/s speed=0.0399x elapsed=0:00:34.46    \nframe=   35 fps=1.0 q=27.0 size=       1KiB time=00:00:01.41 bitrate=   3.2kbits/s speed=0.0405x elapsed=0:00:34.99    \nframe=   36 fps=1.0 q=27.0 size=       1KiB time=00:00:01.45 bitrate=   3.1kbits/s speed=0.041x elapsed=0:00:35.54    \nframe=   36 fps=1.0 q=27.0 size=       1KiB time=00:00:01.45 bitrate=   3.1kbits/s speed=0.0404x elapsed=0:00:36.10    \nframe=   37 fps=1.0 q=25.0 size=       1KiB time=00:00:01.50 bitrate=   3.0kbits/s speed=0.041x elapsed=0:00:36.62    \nframe=   37 fps=1.0 q=25.0 size=       1KiB time=00:00:01.50 bitrate=   3.0kbits/s speed=0.0404x elapsed=0:00:37.15    \nframe=   38 fps=1.0 q=27.0 size=       1KiB time=00:00:01.54 bitrate=   2.9kbits/s speed=0.0409x elapsed=0:00:37.67    \nframe=   38 fps=1.0 q=27.0 size=       1KiB time=00:00:01.54 bitrate=   2.9kbits/s speed=0.0403x elapsed=0:00:38.26    \nframe=   39 fps=1.0 q=27.0 size=       1KiB time=00:00:01.58 bitrate=   2.8kbits/s speed=0.0408x elapsed=0:00:38.79    \nframe=   40 fps=1.0 q=27.0 size=       1KiB time=00:00:01.62 bitrate=   2.8kbits/s speed=0.0413x elapsed=0:00:39.33    \nframe=   41 fps=1.0 q=23.0 size=       1KiB time=00:00:01.66 bitrate=   2.7kbits/s speed=0.0418x elapsed=0:00:39.86    \nframe=   42 fps=1.0 q=27.0 size=       1KiB time=00:00:01.70 bitrate=   2.6kbits/s speed=0.0423x elapsed=0:00:40.38    \nframe=   43 fps=1.0 q=27.0 size=       1KiB time=00:00:01.75 bitrate=   2.6kbits/s speed=0.0427x elapsed=0:00:40.99    \nframe=   44 fps=1.1 q=26.0 size=       1KiB time=00:00:01.79 bitrate=   2.5kbits/s speed=0.0432x elapsed=0:00:41.50    \nframe=   45 fps=1.1 q=24.0 size=       1KiB time=00:00:01.83 bitrate=   2.5kbits/s speed=0.0435x elapsed=0:00:42.10    \nframe=   47 fps=1.1 q=26.0 size=       1KiB time=00:00:01.91 bitrate=   2.3kbits/s speed=0.0449x elapsed=0:00:42.64    \nframe=   48 fps=1.1 q=24.0 size=       1KiB time=00:00:01.95 bitrate=   2.3kbits/s speed=0.0454x elapsed=0:00:43.17    \nframe=   48 fps=1.1 q=24.0 size=       1KiB time=00:00:01.95 bitrate=   2.3kbits/s speed=0.0448x elapsed=0:00:43.69    \nframe=   49 fps=1.1 q=14.0 size=       1KiB time=00:00:02.00 bitrate=   2.2kbits/s speed=0.0452x elapsed=0:00:44.21    \nframe=   50 fps=1.1 q=29.0 size=       1KiB time=00:00:02.04 bitrate=   2.2kbits/s speed=0.0456x elapsed=0:00:44.74    \nframe=   50 fps=1.1 q=29.0 size=       1KiB time=00:00:02.04 bitrate=   2.2kbits/s speed=0.045x elapsed=0:00:45.32    \nframe=   52 fps=1.1 q=29.0 size=       1KiB time=00:00:02.12 bitrate=   2.1kbits/s speed=0.0463x elapsed=0:00:45.86    \nframe=   53 fps=1.1 q=26.0 size=       1KiB time=00:00:02.16 bitrate=   2.1kbits/s speed=0.0467x elapsed=0:00:46.37    \nframe=   53 fps=1.1 q=26.0 size=       1KiB time=00:00:02.16 bitrate=   2.1kbits/s speed=0.0462x elapsed=0:00:46.92    \nframe=   54 fps=1.1 q=29.0 size=       1KiB time=00:00:02.20 bitrate=   2.0kbits/s speed=0.0465x elapsed=0:00:47.45    \nframe=   56 fps=1.2 q=29.0 size=       1KiB time=00:00:02.25 bitrate=   2.0kbits/s speed=0.0469x elapsed=0:00:48.01    \nframe=   56 fps=1.2 q=29.0 size=       1KiB time=00:00:02.29 bitrate=   2.0kbits/s speed=0.0472x elapsed=0:00:48.54    \nframe=   58 fps=1.2 q=29.0 size=       1KiB time=00:00:02.33 bitrate=   1.9kbits/s speed=0.0475x elapsed=0:00:49.10    \nframe=   58 fps=1.2 q=29.0 size=       1KiB time=00:00:02.37 bitrate=   1.9kbits/s speed=0.0478x elapsed=0:00:49.64    \nframe=   59 fps=1.2 q=27.0 size=       1KiB time=00:00:02.41 bitrate=   1.9kbits/s speed=0.0482x elapsed=0:00:50.14    \nframe=   61 fps=1.2 q=24.0 size=       1KiB time=00:00:02.50 bitrate=   1.8kbits/s speed=0.0493x elapsed=0:00:50.69    \nframe=   62 fps=1.2 q=29.0 size=       1KiB time=00:00:02.54 bitrate=   1.8kbits/s speed=0.0496x elapsed=0:00:51.21    \nframe=   64 fps=1.2 q=24.0 size=       1KiB time=00:00:02.62 bitrate=   1.7kbits/s speed=0.0507x elapsed=0:00:51.77    \nframe=   65 fps=1.2 q=12.0 size=       1KiB time=00:00:02.66 bitrate=   1.7kbits/s speed=0.051x elapsed=0:00:52.30    \nframe=   66 fps=1.2 q=30.0 size=       1KiB time=00:00:02.70 bitrate=   1.7kbits/s speed=0.0513x elapsed=0:00:52.81    \nframe=   67 fps=1.3 q=29.0 size=       1KiB time=00:00:02.75 bitrate=   1.6kbits/s speed=0.0516x elapsed=0:00:53.33    \nframe=   68 fps=1.3 q=30.0 size=       1KiB time=00:00:02.79 bitrate=   1.6kbits/s speed=0.0518x elapsed=0:00:53.84    \nframe=   69 fps=1.3 q=27.0 size=       1KiB time=00:00:02.83 bitrate=   1.6kbits/s speed=0.0521x elapsed=0:00:54.38    \nframe=   69 fps=1.3 q=27.0 size=       1KiB time=00:00:02.83 bitrate=   1.6kbits/s speed=0.0516x elapsed=0:00:54.90    \nframe=   70 fps=1.3 q=30.0 size=       1KiB time=00:00:02.87 bitrate=   1.6kbits/s speed=0.0518x elapsed=0:00:55.44    \nframe=   71 fps=1.3 q=29.0 size=       1KiB time=00:00:02.91 bitrate=   1.5kbits/s speed=0.052x elapsed=0:00:56.10    \nframe=   73 fps=1.3 q=23.0 size=       1KiB time=00:00:03.00 bitrate=   1.5kbits/s speed=0.0529x elapsed=0:00:56.66    \nframe=   74 fps=1.3 q=30.0 size=       1KiB time=00:00:03.04 bitrate=   1.5kbits/s speed=0.0531x elapsed=0:00:57.24    \nframe=   75 fps=1.3 q=28.0 size=       1KiB time=00:00:03.08 bitrate=   1.5kbits/s speed=0.0533x elapsed=0:00:57.82    \nframe=   76 fps=1.3 q=28.0 size=       1KiB time=00:00:03.08 bitrate=   1.5kbits/s speed=0.0528x elapsed=0:00:58.36    \nframe=   77 fps=1.3 q=24.0 size=       1KiB time=00:00:03.16 bitrate=   1.4kbits/s speed=0.0537x elapsed=0:00:58.95    \nframe=   79 fps=1.3 q=28.0 size=       1KiB time=00:00:03.25 bitrate=   1.4kbits/s speed=0.0546x elapsed=0:00:59.55    \nframe=   80 fps=1.3 q=30.0 size=       1KiB time=00:00:03.29 bitrate=   1.4kbits/s speed=0.0548x elapsed=0:01:00.06    \nframe=   82 fps=1.4 q=31.0 size=       1KiB time=00:00:03.37 bitrate=   1.3kbits/s speed=0.0557x elapsed=0:01:00.58    \nframe=   82 fps=1.3 q=31.0 size=       1KiB time=00:00:03.37 bitrate=   1.3kbits/s speed=0.0552x elapsed=0:01:01.12    \nframe=   83 fps=1.3 q=30.0 size=       1KiB time=00:00:03.41 bitrate=   1.3kbits/s speed=0.0554x elapsed=0:01:01.64    \nframe=   84 fps=1.4 q=31.0 size=       1KiB time=00:00:03.45 bitrate=   1.3kbits/s speed=0.0556x elapsed=0:01:02.19    \nframe=   85 fps=1.4 q=28.0 size=       1KiB time=00:00:03.50 bitrate=   1.3kbits/s speed=0.0558x elapsed=0:01:02.70    \nframe=   85 fps=1.3 q=28.0 size=       1KiB time=00:00:03.50 bitrate=   1.3kbits/s speed=0.0554x elapsed=0:01:03.22    \nframe=   86 fps=1.3 q=29.0 size=       1KiB time=00:00:03.54 bitrate=   1.3kbits/s speed=0.0555x elapsed=0:01:03.77    \nframe=   86 fps=1.3 q=29.0 size=       1KiB time=00:00:03.54 bitrate=   1.3kbits/s speed=0.0551x elapsed=0:01:04.29    \nframe=   88 fps=1.4 q=29.0 size=       1KiB time=00:00:03.62 bitrate=   1.2kbits/s speed=0.0559x elapsed=0:01:04.84    \nframe=   89 fps=1.4 q=23.0 size=       1KiB time=00:00:03.66 bitrate=   1.2kbits/s speed=0.0561x elapsed=0:01:05.40    \nframe=   90 fps=1.4 q=31.0 size=       1KiB time=00:00:03.70 bitrate=   1.2kbits/s speed=0.0562x elapsed=0:01:05.97    \nframe=   91 fps=1.4 q=29.0 size=       1KiB time=00:00:03.75 bitrate=   1.2kbits/s speed=0.0564x elapsed=0:01:06.51    \nframe=   93 fps=1.4 q=25.0 size=       1KiB time=00:00:03.83 bitrate=   1.2kbits/s speed=0.0572x elapsed=0:01:07.06    \nframe=   95 fps=1.4 q=28.0 size=       1KiB time=00:00:03.91 bitrate=   1.1kbits/s speed=0.058x elapsed=0:01:07.58    \nframe=   96 fps=1.4 q=30.0 size=       1KiB time=00:00:03.95 bitrate=   1.1kbits/s speed=0.0581x elapsed=0:01:08.10    \nframe=   98 fps=1.4 q=31.0 size=       1KiB time=00:00:04.00 bitrate=   1.1kbits/s speed=0.0583x elapsed=0:01:08.64    \nframe=   98 fps=1.4 q=31.0 size=       1KiB time=00:00:04.04 bitrate=   1.1kbits/s speed=0.0584x elapsed=0:01:09.24    \nframe=   99 fps=1.4 q=30.0 size=       1KiB time=00:00:04.08 bitrate=   1.1kbits/s speed=0.0585x elapsed=0:01:09.77    \nframe=  100 fps=1.4 q=31.0 size=       1KiB time=00:00:04.12 bitrate=   1.1kbits/s speed=0.0587x elapsed=0:01:10.29    \nframe=  101 fps=1.4 q=28.0 size=       1KiB time=00:00:04.16 bitrate=   1.1kbits/s speed=0.0588x elapsed=0:01:10.80    \nframe=  101 fps=1.4 q=28.0 size=       1KiB time=00:00:04.16 bitrate=   1.1kbits/s speed=0.0584x elapsed=0:01:11.33    \nframe=  101 fps=1.4 q=28.0 size=       1KiB time=00:00:04.16 bitrate=   1.1kbits/s speed=0.058x elapsed=0:01:11.86    \nframe=  102 fps=1.4 q=31.0 size=       1KiB time=00:00:04.20 bitrate=   1.1kbits/s speed=0.0581x elapsed=0:01:12.39    \nframe=  102 fps=1.4 q=31.0 size=       1KiB time=00:00:04.20 bitrate=   1.1kbits/s speed=0.0577x elapsed=0:01:12.94    \nframe=  103 fps=1.4 q=30.0 size=       1KiB time=00:00:04.25 bitrate=   1.1kbits/s speed=0.0578x elapsed=0:01:13.51    \nframe=  104 fps=1.4 q=31.0 size=       1KiB time=00:00:04.29 bitrate=   1.0kbits/s speed=0.058x elapsed=0:01:14.04    \nframe=  106 fps=1.4 q=30.0 size=       1KiB time=00:00:04.37 bitrate=   1.0kbits/s speed=0.0587x elapsed=0:01:14.55    \nframe=  106 fps=1.4 q=30.0 size=       1KiB time=00:00:04.37 bitrate=   1.0kbits/s speed=0.0583x elapsed=0:01:15.08    \nframe=  107 fps=1.4 q=28.0 size=       1KiB time=00:00:04.41 bitrate=   1.0kbits/s speed=0.0584x elapsed=0:01:15.66    \nframe=  109 fps=1.4 q=24.0 size=       1KiB time=00:00:04.50 bitrate=   1.0kbits/s speed=0.059x elapsed=0:01:16.22    \nframe=  110 fps=1.4 q=30.0 size=       1KiB time=00:00:04.54 bitrate=   1.0kbits/s speed=0.0591x elapsed=0:01:16.81    \nframe=  111 fps=1.4 q=28.0 size=       1KiB time=00:00:04.58 bitrate=   1.0kbits/s speed=0.0593x elapsed=0:01:17.32    \nframe=  112 fps=1.4 q=30.0 size=       1KiB time=00:00:04.62 bitrate=   1.0kbits/s speed=0.0594x elapsed=0:01:17.91    \nframe=  114 fps=1.5 q=31.0 size=       1KiB time=00:00:04.70 bitrate=   1.0kbits/s speed=0.06x elapsed=0:01:18.42    \nframe=  115 fps=1.5 q=30.0 size=       1KiB time=00:00:04.75 bitrate=   0.9kbits/s speed=0.0602x elapsed=0:01:18.96    \nframe=  117 fps=1.5 q=28.0 size=       1KiB time=00:00:04.83 bitrate=   0.9kbits/s speed=0.0608x elapsed=0:01:19.50    \nframe=  117 fps=1.5 q=28.0 size=       1KiB time=00:00:04.83 bitrate=   0.9kbits/s speed=0.0604x elapsed=0:01:20.03    \nframe=  117 fps=1.5 q=28.0 size=       1KiB time=00:00:04.83 bitrate=   0.9kbits/s speed=0.06x elapsed=0:01:20.59    \nframe=  118 fps=1.5 q=31.0 size=       1KiB time=00:00:04.87 bitrate=   0.9kbits/s speed=0.0601x elapsed=0:01:21.14    \nframe=  119 fps=1.5 q=30.0 size=       1KiB time=00:00:04.91 bitrate=   0.9kbits/s speed=0.0602x elapsed=0:01:21.73    \nframe=  120 fps=1.5 q=31.0 size=       1KiB time=00:00:04.95 bitrate=   0.9kbits/s speed=0.0603x elapsed=0:01:22.29    \nframe=  122 fps=1.5 q=30.0 size=       1KiB time=00:00:05.04 bitrate=   0.9kbits/s speed=0.0608x elapsed=0:01:22.86    \nframe=  122 fps=1.5 q=30.0 size=       1KiB time=00:00:05.04 bitrate=   0.9kbits/s speed=0.0604x elapsed=0:01:23.42    \nframe=  123 fps=1.5 q=28.0 size=    2560KiB time=00:00:05.04 bitrate=4159.6kbits/s speed=0.06x elapsed=0:01:24.02    \nframe=  123 fps=1.5 q=28.0 size=    2560KiB time=00:00:05.08 bitrate=4125.5kbits/s speed=0.06x elapsed=0:01:24.69    \nframe=  124 fps=1.5 q=30.0 size=    2560KiB time=00:00:05.12 bitrate=4092.0kbits/s speed=0.0601x elapsed=0:01:25.20    \nframe=  127 fps=1.5 q=27.0 size=    2560KiB time=00:00:05.25 bitrate=3994.6kbits/s speed=0.0612x elapsed=0:01:25.75    \nframe=  127 fps=1.5 q=27.0 size=    2560KiB time=00:00:05.25 bitrate=3994.6kbits/s speed=0.0608x elapsed=0:01:26.29    \nframe=  129 fps=1.5 q=16.0 size=    2560KiB time=00:00:05.33 bitrate=3932.2kbits/s speed=0.0614x elapsed=0:01:26.83    \nframe=  130 fps=1.5 q=31.0 size=    2560KiB time=00:00:05.37 bitrate=3901.7kbits/s speed=0.0615x elapsed=0:01:27.37    \nframe=  130 fps=1.5 q=31.0 size=    2560KiB time=00:00:05.37 bitrate=3901.7kbits/s speed=0.0611x elapsed=0:01:27.99    \nframe=  131 fps=1.5 q=29.0 size=    2560KiB time=00:00:05.41 bitrate=3871.7kbits/s speed=0.0612x elapsed=0:01:28.55    \nframe=  132 fps=1.5 q=31.0 size=    2560KiB time=00:00:05.45 bitrate=3842.1kbits/s speed=0.0612x elapsed=0:01:29.11    \nframe=  133 fps=1.5 q=27.0 size=    2560KiB time=00:00:05.50 bitrate=3813.0kbits/s speed=0.0613x elapsed=0:01:29.69    \nframe=  134 fps=1.5 q=31.0 size=    2560KiB time=00:00:05.50 bitrate=3813.0kbits/s speed=0.0609x elapsed=0:01:30.29    \nframe=  134 fps=1.5 q=31.0 size=    2560KiB time=00:00:05.54 bitrate=3784.3kbits/s speed=0.061x elapsed=0:01:30.87    \nframe=  134 fps=1.5 q=31.0 size=    2560KiB time=00:00:05.54 bitrate=3784.3kbits/s speed=0.0606x elapsed=0:01:31.45    \nframe=  136 fps=1.5 q=31.0 size=    2560KiB time=00:00:05.62 bitrate=3728.3kbits/s speed=0.0611x elapsed=0:01:32.03    \nframe=  137 fps=1.5 q=22.0 size=    2560KiB time=00:00:05.66 bitrate=3700.9kbits/s speed=0.0612x elapsed=0:01:32.64    \nframe=  138 fps=1.5 q=31.0 size=    2560KiB time=00:00:05.70 bitrate=3673.8kbits/s speed=0.0612x elapsed=0:01:33.28    \nframe=  140 fps=1.5 q=31.0 size=    2560KiB time=00:00:05.79 bitrate=3621.0kbits/s speed=0.0617x elapsed=0:01:33.82    \nframe=  145 fps=1.5 q=11.0 size=    2560KiB time=00:00:06.00 bitrate=3495.3kbits/s speed=0.0636x elapsed=0:01:34.40    \nframe=  145 fps=1.5 q=11.0 size=    2560KiB time=00:00:06.00 bitrate=3495.3kbits/s speed=0.0631x elapsed=0:01:35.04    \nframe=  149 fps=1.6 q=28.0 size=    2560KiB time=00:00:06.08 bitrate=3447.4kbits/s speed=0.0633x elapsed=0:01:36.03    \nframe=  151 fps=1.6 q=30.0 size=    2560KiB time=00:00:06.16 bitrate=3400.8kbits/s speed=0.0635x elapsed=0:01:37.14    \nframe=  153 fps=1.6 q=25.0 size=    2560KiB time=00:00:06.33 bitrate=3311.3kbits/s speed=0.0646x elapsed=0:01:38.10    \nframe=  153 fps=1.6 q=25.0 size=    2560KiB time=00:00:06.33 bitrate=3311.3kbits/s speed=0.0642x elapsed=0:01:38.66    \nframe=  153 fps=1.5 q=25.0 size=    2560KiB time=00:00:06.33 bitrate=3311.3kbits/s speed=0.0638x elapsed=0:01:39.22    \nframe=  155 fps=1.6 q=30.0 size=    2560KiB time=00:00:06.33 bitrate=3311.3kbits/s speed=0.0633x elapsed=0:01:39.97    \nframe=  157 fps=1.6 q=28.0 size=    2560KiB time=00:00:06.50 bitrate=3226.4kbits/s speed=0.0646x elapsed=0:01:40.62    \nframe=  157 fps=1.6 q=28.0 size=    2560KiB time=00:00:06.50 bitrate=3226.4kbits/s speed=0.0642x elapsed=0:01:41.19    \nframe=  162 fps=1.6 q=8.0 size=    2560KiB time=00:00:06.70 bitrate=3126.2kbits/s speed=0.0659x elapsed=0:01:41.75    \nframe=  162 fps=1.6 q=8.0 size=    2560KiB time=00:00:06.70 bitrate=3126.2kbits/s speed=0.0656x elapsed=0:01:42.32    \nframe=  162 fps=1.6 q=8.0 size=    2560KiB time=00:00:06.70 bitrate=3126.2kbits/s speed=0.0652x elapsed=0:01:42.83    \nframe=  162 fps=1.6 q=8.0 size=    2560KiB time=00:00:06.70 bitrate=3126.2kbits/s speed=0.0649x elapsed=0:01:43.36    \nframe=  162 fps=1.6 q=8.0 size=    2560KiB time=00:00:06.70 bitrate=3126.2kbits/s speed=0.0646x elapsed=0:01:43.91    \nframe=  162 fps=1.6 q=8.0 size=    2560KiB time=00:00:06.70 bitrate=3126.2kbits/s speed=0.0642x elapsed=0:01:44.46    \nframe=  164 fps=1.6 q=28.0 size=    3072KiB time=00:00:06.70 bitrate=3751.4kbits/s speed=0.0639x elapsed=0:01:45.01    \nframe=  166 fps=1.6 q=26.0 size=    3072KiB time=00:00:06.87 bitrate=3660.5kbits/s speed=0.0651x elapsed=0:01:45.63    \nframe=  166 fps=1.6 q=26.0 size=    3072KiB time=00:00:06.87 bitrate=3660.5kbits/s speed=0.0647x elapsed=0:01:46.21    \nframe=  168 fps=1.6 q=28.0 size=    3072KiB time=00:00:06.95 bitrate=3616.6kbits/s speed=0.0652x elapsed=0:01:46.75    \nframe=  170 fps=1.6 q=22.0 size=    3072KiB time=00:00:07.04 bitrate=3573.8kbits/s speed=0.0656x elapsed=0:01:47.27    \nframe=  170 fps=1.6 q=22.0 size=    3072KiB time=00:00:07.04 bitrate=3573.8kbits/s speed=0.0653x elapsed=0:01:47.79    \nframe=  172 fps=1.6 q=28.0 size=    3072KiB time=00:00:07.12 bitrate=3532.0kbits/s speed=0.0658x elapsed=0:01:48.30    \nframe=  174 fps=1.6 q=26.0 size=    3072KiB time=00:00:07.12 bitrate=3532.0kbits/s speed=0.0655x elapsed=0:01:48.82    \nframe=  174 fps=1.6 q=26.0 size=    3072KiB time=00:00:07.20 bitrate=3491.2kbits/s speed=0.0659x elapsed=0:01:49.38    \nframe=  176 fps=1.6 q=22.0 size=    3072KiB time=00:00:07.29 bitrate=3451.3kbits/s speed=0.0663x elapsed=0:01:49.90    \nframe=  178 fps=1.6 q=12.0 size=    3072KiB time=00:00:07.37 bitrate=3412.3kbits/s speed=0.0667x elapsed=0:01:50.50    \nframe=  180 fps=1.6 q=28.0 size=    3072KiB time=00:00:07.45 bitrate=3374.2kbits/s speed=0.0672x elapsed=0:01:51.05    \nframe=  182 fps=1.6 q=25.0 size=    3072KiB time=00:00:07.54 bitrate=3336.9kbits/s speed=0.0675x elapsed=0:01:51.65    \nframe=  182 fps=1.6 q=25.0 size=    3072KiB time=00:00:07.54 bitrate=3336.9kbits/s speed=0.0672x elapsed=0:01:52.22    \nframe=  186 fps=1.6 q=20.0 size=    3072KiB time=00:00:07.70 bitrate=3264.8kbits/s speed=0.0683x elapsed=0:01:52.82    \nframe=  186 fps=1.6 q=20.0 size=    3072KiB time=00:00:07.70 bitrate=3264.8kbits/s speed=0.068x elapsed=0:01:53.40    \nframe=  186 fps=1.6 q=20.0 size=    3072KiB time=00:00:07.70 bitrate=3264.8kbits/s speed=0.0677x elapsed=0:01:53.92    \nframe=  188 fps=1.6 q=28.0 size=    3072KiB time=00:00:07.79 bitrate=3229.8kbits/s speed=0.068x elapsed=0:01:54.53    \nframe=  190 fps=1.7 q=25.0 size=    3072KiB time=00:00:07.87 bitrate=3195.7kbits/s speed=0.0684x elapsed=0:01:55.09    \nframe=  192 fps=1.7 q=20.0 size=    3072KiB time=00:00:07.95 bitrate=3162.2kbits/s speed=0.0688x elapsed=0:01:55.69    \nframe=  194 fps=1.7 q=10.0 size=    3072KiB time=00:00:07.95 bitrate=3162.2kbits/s speed=0.0684x elapsed=0:01:56.30    \nframe=  194 fps=1.7 q=10.0 size=    3072KiB time=00:00:08.04 bitrate=3129.4kbits/s speed=0.0687x elapsed=0:01:57.00    \nframe=  198 fps=1.7 q=25.0 size=    3072KiB time=00:00:08.12 bitrate=3097.3kbits/s speed=0.0691x elapsed=0:01:57.60    \nframe=  198 fps=1.7 q=25.0 size=    3072KiB time=00:00:08.20 bitrate=3065.9kbits/s speed=0.0695x elapsed=0:01:58.18    \nframe=  200 fps=1.7 q=27.0 size=    3072KiB time=00:00:08.29 bitrate=3035.1kbits/s speed=0.0698x elapsed=0:01:58.76    \nframe=  202 fps=1.7 q=20.0 size=    3072KiB time=00:00:08.37 bitrate=3004.9kbits/s speed=0.0702x elapsed=0:01:59.32    \nframe=  202 fps=1.7 q=20.0 size=    3072KiB time=00:00:08.37 bitrate=3004.9kbits/s speed=0.0699x elapsed=0:01:59.87    \nframe=  202 fps=1.7 q=20.0 size=    3072KiB time=00:00:08.37 bitrate=3004.9kbits/s speed=0.0695x elapsed=0:02:00.44    \nframe=  204 fps=1.7 q=24.0 size=    3072KiB time=00:00:08.37 bitrate=3004.9kbits/s speed=0.0692x elapsed=0:02:01.01    \nframe=  204 fps=1.7 q=24.0 size=    3072KiB time=00:00:08.45 bitrate=2975.3kbits/s speed=0.0695x elapsed=0:02:01.62    \nframe=  206 fps=1.7 q=20.0 size=    3072KiB time=00:00:08.54 bitrate=2946.2kbits/s speed=0.0699x elapsed=0:02:02.21    \nframe=  208 fps=1.7 q=24.0 size=    3072KiB time=00:00:08.54 bitrate=2946.2kbits/s speed=0.0695x elapsed=0:02:02.83    \nframe=  208 fps=1.7 q=24.0 size=    3072KiB time=00:00:08.62 bitrate=2917.8kbits/s speed=0.0699x elapsed=0:02:03.47    \nframe=  210 fps=1.7 q=10.0 size=    3072KiB time=00:00:08.70 bitrate=2889.9kbits/s speed=0.0702x elapsed=0:02:04.07    \nframe=  212 fps=1.7 q=25.0 size=    3072KiB time=00:00:08.79 bitrate=2862.5kbits/s speed=0.0705x elapsed=0:02:04.62    \nframe=  214 fps=1.7 q=21.0 size=    3072KiB time=00:00:08.87 bitrate=2835.6kbits/s speed=0.0709x elapsed=0:02:05.18    \nframe=  214 fps=1.7 q=21.0 size=    3072KiB time=00:00:08.87 bitrate=2835.6kbits/s speed=0.0706x elapsed=0:02:05.74    \nframe=  218 fps=1.7 q=19.0 size=    3072KiB time=00:00:09.04 bitrate=2783.3kbits/s speed=0.0716x elapsed=0:02:06.27    \nframe=  218 fps=1.7 q=19.0 size=    3072KiB time=00:00:09.04 bitrate=2783.3kbits/s speed=0.0713x elapsed=0:02:06.83    \nframe=  218 fps=1.7 q=19.0 size=    3072KiB time=00:00:09.04 bitrate=2783.3kbits/s speed=0.071x elapsed=0:02:07.37    \nframe=  218 fps=1.7 q=19.0 size=    3072KiB time=00:00:09.04 bitrate=2783.3kbits/s speed=0.0706x elapsed=0:02:07.97    \nframe=  222 fps=1.7 q=27.0 size=    3072KiB time=00:00:09.20 bitrate=2732.9kbits/s speed=0.0716x elapsed=0:02:08.55    \nframe=  222 fps=1.7 q=27.0 size=    3072KiB time=00:00:09.20 bitrate=2732.9kbits/s speed=0.0713x elapsed=0:02:09.09    \nframe=  232 fps=1.8 q=27.0 size=    3072KiB time=00:00:09.54 bitrate=2637.5kbits/s speed=0.0736x elapsed=0:02:09.69    \n[out#0/matroska @ 00000230046f9080] video:4208KiB audio:0KiB subtitle:0KiB other streams:0KiB global headers:0KiB muxing overhead: 0.041610%\nframe=  240 fps=1.8 q=24.0 Lsize=    4210KiB time=00:00:09.95 bitrate=3463.1kbits/s speed=0.0766x elapsed=0:02:10.05    \n",
  "seconds": 133.11513233184814,
  "probe_out": {}
}